<svg width="400" height="200" xmlns="http://www.w3.org/2000/svg" xmlns:xlink="http://www.w3.org/1999/xlink">
  <defs>
    <!-- Background gradient -->
    <linearGradient id="frenzGradient" x1="0%" y1="0%" x2="100%" y2="100%">
      <stop offset="0%" style="stop-color:#0e7490;stop-opacity:1" />
      <stop offset="50%" style="stop-color:#0891b2;stop-opacity:1" />
      <stop offset="100%" style="stop-color:#06b6d4;stop-opacity:1" />
    </linearGradient>
    
    <!-- Connection pattern -->
    <pattern id="connectionPattern" x="0" y="0" width="30" height="30" patternUnits="userSpaceOnUse">
      <path d="M0,15 L30,15 M15,0 L15,30" stroke="#06b6d4" stroke-width="0.5" stroke-dasharray="1,3" opacity="0.2" />
    </pattern>
    
    <!-- Glow filter -->
    <filter id="glow" x="-30%" y="-30%" width="160%" height="160%">
      <feGaussianBlur stdDeviation="2.5" result="blur" />
      <feComposite in="SourceGraphic" in2="blur" operator="over" />
    </filter>
    
    <!-- Profile circle clipPath -->
    <clipPath id="profileClip">
      <circle cx="20" cy="20" r="18" />
    </clipPath>
    
    <!-- Profile icon template -->
    <symbol id="profileIcon" viewBox="0 0 40 40">
      <circle cx="20" cy="20" r="19" fill="#0e7490" stroke="white" stroke-width="1" />
      <circle cx="20" cy="16" r="6" fill="white" />
      <path d="M8,34 C8,25 32,25 32,34" fill="white" />
    </symbol>
    
    <!-- Message bubble -->
    <symbol id="messageBubble" viewBox="0 0 50 30">
      <rect x="0" y="0" width="50" height="25" rx="10" ry="10" fill="white" />
      <path d="M10,25 L15,35 L20,25" fill="white" />
    </symbol>
    
    <!-- Emoji symbols -->
    <symbol id="emojiHappy" viewBox="0 0 24 24">
      <circle cx="12" cy="12" r="10" fill="#FFD700" />
      <path d="M7,9 C7.5,9 8,9.5 8,10 C8,10.5 7.5,11 7,11 C6.5,11 6,10.5 6,10 C6,9.5 6.5,9 7,9" fill="#000" />
      <path d="M17,9 C17.5,9 18,9.5 18,10 C18,10.5 17.5,11 17,11 C16.5,11 16,10.5 16,10 C16,9.5 16.5,9 17,9" fill="#000" />
      <path d="M7,15 C9,18 15,18 17,15" stroke="#000" stroke-width="1.5" fill="none" stroke-linecap="round" />
    </symbol>
    
    <!-- Like/heart icon -->
    <symbol id="heartIcon" viewBox="0 0 24 24">
      <path d="M12,21.35L10.55,20.03C5.4,15.36,2,12.27,2,8.5C2,5.41,4.42,3,7.5,3C9.24,3,10.91,3.81,12,5.08C13.09,3.81,14.76,3,16.5,3C19.58,3,22,5.41,22,8.5C22,12.27,18.6,15.36,13.45,20.03L12,21.35Z" fill="#FF5252" />
    </symbol>
    
    <!-- Connection animation -->
    <linearGradient id="connectionGradient" x1="0%" y1="0%" x2="100%" y2="0%">
      <stop offset="0%" style="stop-color:white;stop-opacity:0">
        <animate attributeName="offset" values="0;1" dur="2s" repeatCount="indefinite" />
      </stop>
      <stop offset="20%" style="stop-color:white;stop-opacity:0.8">
        <animate attributeName="offset" values="0.2;1.2" dur="2s" repeatCount="indefinite" />
      </stop>
      <stop offset="40%" style="stop-color:white;stop-opacity:0">
        <animate attributeName="offset" values="0.4;1.4" dur="2s" repeatCount="indefinite" />
      </stop>
    </linearGradient>
  </defs>
  
  <!-- Main background with gradient -->
  <rect width="400" height="200" fill="url(#frenzGradient)" rx="10" ry="10" />
  
  <!-- Pattern background -->
  <rect width="400" height="200" fill="url(#connectionPattern)" />
  
  <!-- Network visualization -->
  <g id="network">
    <!-- Central profile -->
    <g transform="translate(200, 100)">
      <circle cx="0" cy="0" r="28" fill="#06b6d4" filter="url(#glow)" opacity="0.8">
        <animate attributeName="r" values="27;29;27" dur="3s" repeatCount="indefinite" />
      </circle>
      <use xlink:href="#profileIcon" x="-20" y="-20" width="40" height="40" />
    </g>
    
    <!-- Connected profiles -->
    <g>
      <!-- Profile 1 -->
      <g transform="translate(100, 70)">
        <circle cx="0" cy="0" r="18" fill="#0e7490" />
        <use xlink:href="#profileIcon" x="-15" y="-15" width="30" height="30" />
      </g>
      
      <!-- Profile 2 -->
      <g transform="translate(90, 140)">
        <circle cx="0" cy="0" r="18" fill="#0e7490" />
        <use xlink:href="#profileIcon" x="-15" y="-15" width="30" height="30" />
      </g>
      
      <!-- Profile 3 -->
      <g transform="translate(300, 60)">
        <circle cx="0" cy="0" r="18" fill="#0e7490" />
        <use xlink:href="#profileIcon" x="-15" y="-15" width="30" height="30" />
      </g>
      
      <!-- Profile 4 -->
      <g transform="translate(280, 150)">
        <circle cx="0" cy="0" r="18" fill="#0e7490" />
        <use xlink:href="#profileIcon" x="-15" y="-15" width="30" height="30" />
      </g>
      
      <!-- Mini profiles -->
      <g transform="translate(140, 30)">
        <circle cx="0" cy="0" r="10" fill="#0e7490" />
        <use xlink:href="#profileIcon" x="-8" y="-8" width="16" height="16" />
      </g>
      
      <g transform="translate(250, 25)">
        <circle cx="0" cy="0" r="10" fill="#0e7490" />
        <use xlink:href="#profileIcon" x="-8" y="-8" width="16" height="16" />
      </g>
      
      <g transform="translate(330, 100)">
        <circle cx="0" cy="0" r="10" fill="#0e7490" />
        <use xlink:href="#profileIcon" x="-8" y="-8" width="16" height="16" />
      </g>
      
      <g transform="translate(150, 170)">
        <circle cx="0" cy="0" r="10" fill="#0e7490" />
        <use xlink:href="#profileIcon" x="-8" y="-8" width="16" height="16" />
      </g>
    </g>
    
    <!-- Connections with animation -->
    <g stroke="url(#connectionGradient)" stroke-width="1.5">
      <line x1="200" y1="100" x2="100" y2="70" />
      <line x1="200" y1="100" x2="90" y2="140" />
      <line x1="200" y1="100" x2="300" y2="60" />
      <line x1="200" y1="100" x2="280" y2="150" />
      <line x1="200" y1="100" x2="140" y2="30" />
      <line x1="200" y1="100" x2="250" y2="25" />
      <line x1="200" y1="100" x2="330" y2="100" />
      <line x1="200" y1="100" x2="150" y2="170" />
    </g>
    
    <!-- Secondary connections with dashed lines -->
    <g stroke="white" stroke-width="0.8" stroke-dasharray="2,2" opacity="0.4">
      <line x1="100" y1="70" x2="140" y2="30" />
      <line x1="300" y1="60" x2="250" y2="25" />
      <line x1="300" y1="60" x2="330" y2="100" />
      <line x1="90" y1="140" x2="150" y2="170" />
      <line x1="280" y1="150" x2="150" y2="170" />
    </g>
  </g>
  
  <!-- Social interaction elements -->
  <g>
    <!-- Message bubble 1 -->
    <g transform="translate(130, 50)">
      <use xlink:href="#messageBubble" width="35" height="21" opacity="0.85" />
      <use xlink:href="#emojiHappy" x="5" y="2" width="16" height="16" />
    </g>
    
    <!-- Message bubble 2 -->
    <g transform="translate(265, 130)">
      <use xlink:href="#messageBubble" width="35" height="21" opacity="0.85" />
      <text x="17" y="15" font-family="Arial" font-size="9" text-anchor="middle" fill="#0e7490">Hi!</text>
    </g>
    
    <!-- Like animations -->
    <g>
      <g transform="translate(120, 95)">
        <use xlink:href="#heartIcon" width="16" height="16">
          <animate attributeName="opacity" values="0;1;0" dur="4s" begin="1s" repeatCount="indefinite" />
          <animateTransform attributeName="transform" type="translate" values="0,0; 0,-15" dur="4s" begin="1s" repeatCount="indefinite" />
        </use>
      </g>
      
      <g transform="translate(295, 90)">
        <use xlink:href="#heartIcon" width="16" height="16">
          <animate attributeName="opacity" values="0;1;0" dur="4s" begin="0s" repeatCount="indefinite" />
          <animateTransform attributeName="transform" type="translate" values="0,0; 0,-15" dur="4s" begin="0s" repeatCount="indefinite" />
        </use>
      </g>
      
      <g transform="translate(225, 160)">
        <use xlink:href="#heartIcon" width="16" height="16">
          <animate attributeName="opacity" values="0;1;0" dur="4s" begin="2s" repeatCount="indefinite" />
          <animateTransform attributeName="transform" type="translate" values="0,0; 0,-15" dur="4s" begin="2s" repeatCount="indefinite" />
        </use>
      </g>
    </g>
  </g>
  
  <!-- Title with animation -->
  <g>
    <!-- Animated glowing outline text -->
    <filter id="glow-text">
      <feGaussianBlur in="SourceAlpha" stdDeviation="2" result="blur" />
      <feOffset in="blur" dx="0" dy="0" result="offsetBlur" />
      <feComposite in="SourceGraphic" in2="offsetBlur" operator="over" />
    </filter>
    
    <g filter="url(#glow-text)">
      <text x="200" y="50" font-family="Arial" font-size="28" font-weight="bold" fill="white" text-anchor="middle" opacity="0.9">FRENZ</text>
    </g>
    
    <!-- Subtitle with animation -->
    <text x="200" y="75" font-family="Arial" font-size="12" fill="white" text-anchor="middle" opacity="0.8">
      Connect • Share • Engage
      <animate attributeName="opacity" values="0.6;1;0.6" dur="4s" repeatCount="indefinite" />
    </text>
    
    <!-- Animated underline -->
    <line x1="150" y1="55" x2="250" y2="55" stroke="white" stroke-width="1.5" opacity="0.5">
      <animate attributeName="x1" values="150;170;150" dur="6s" repeatCount="indefinite" />
      <animate attributeName="x2" values="250;230;250" dur="6s" repeatCount="indefinite" />
    </line>
  </g>
  
  <!-- Decorative elements -->
  <g>
    <!-- Floating particles -->
    <circle cx="50" cy="40" r="1" fill="white" opacity="0.7">
      <animate attributeName="opacity" values="0.2;0.7;0.2" dur="3s" repeatCount="indefinite" />
    </circle>
    <circle cx="350" cy="50" r="1.2" fill="white" opacity="0.7">
      <animate attributeName="opacity" values="0.3;0.8;0.3" dur="4s" repeatCount="indefinite" />
    </circle>
    <circle cx="70" cy="160" r="1.3" fill="white" opacity="0.7">
      <animate attributeName="opacity" values="0.4;0.9;0.4" dur="3.5s" repeatCount="indefinite" />
    </circle>
    <circle cx="340" cy="170" r="1" fill="white" opacity="0.7">
      <animate attributeName="opacity" values="0.3;0.8;0.3" dur="2.8s" repeatCount="indefinite" />
    </circle>
    
    <!-- Notification dots -->
    <circle cx="100" cy="60" r="3" fill="#FF5252">
      <animate attributeName="opacity" values="1;0.5;1" dur="2s" repeatCount="indefinite" />
    </circle>
    <circle cx="300" cy="50" r="3" fill="#FF5252">
      <animate attributeName="opacity" values="0.5;1;0.5" dur="2s" repeatCount="indefinite" />
    </circle>
    
    <!-- Social activity stats -->
    <g transform="translate(210, 180)">
      <text x="0" y="0" font-family="Arial" font-size="8" fill="white" text-anchor="middle">1.2K Connections</text>
    </g>
  </g>
</svg> 