<?xml version="1.0" encoding="UTF-8"?>
<svg xmlns="http://www.w3.org/2000/svg" xmlns:xlink="http://www.w3.org/1999/xlink" width="600" height="400" viewBox="0 0 600 400">
  <!-- Definitions -->
  <defs>
    <!-- Rich background gradient -->
    <linearGradient id="hubGradient" x1="0%" y1="0%" x2="100%" y2="100%">
      <stop offset="0%" stop-color="#1a237e" />
      <stop offset="25%" stop-color="#283593" />
      <stop offset="50%" stop-color="#303f9f" />
      <stop offset="75%" stop-color="#3949ab" />
      <stop offset="100%" stop-color="#3f51b5" />
    </linearGradient>
    
    <!-- Radial glow for the central hub -->
    <radialGradient id="hubGlow" cx="50%" cy="50%" r="50%" fx="50%" fy="50%">
      <stop offset="0%" stop-color="#64b5f6" stop-opacity="0.9" />
      <stop offset="70%" stop-color="#2196f3" stop-opacity="0.6" />
      <stop offset="100%" stop-color="#0d47a1" stop-opacity="0.1" />
    </radialGradient>
    
    <!-- Node glow filter -->
    <filter id="nodeGlow" x="-50%" y="-50%" width="200%" height="200%">
      <feGaussianBlur stdDeviation="5" result="blur" />
      <feComposite in="SourceGraphic" in2="blur" operator="over" />
    </filter>
    
    <!-- Connection pattern -->
    <pattern id="connectionPattern" x="0" y="0" width="10" height="10" patternUnits="userSpaceOnUse">
      <line x1="0" y1="5" x2="10" y2="5" stroke="#4fc3f7" stroke-width="0.5" stroke-dasharray="1,1" />
    </pattern>
    
    <!-- Tech node symbol -->
    <symbol id="techNode" viewBox="0 0 40 40">
      <circle cx="20" cy="20" r="18" fill="url(#hubGlow)" />
      <circle cx="20" cy="20" r="15" fill="#1565c0" stroke="#90caf9" stroke-width="1" />
      <path d="M13,15 L27,15 L27,25 L13,25 Z" fill="none" stroke="#90caf9" stroke-width="1" />
      <path d="M15,18 L25,18 M15,21 L25,21 M15,24 L22,24" stroke="#90caf9" stroke-width="1" />
    </symbol>
    
    <!-- Server icon symbol -->
    <symbol id="serverIcon" viewBox="0 0 40 40">
      <rect x="10" y="10" width="20" height="20" rx="2" fill="#1976d2" stroke="#bbdefb" stroke-width="1" />
      <line x1="10" y1="16" x2="30" y2="16" stroke="#bbdefb" stroke-width="1" />
      <line x1="10" y1="22" x2="30" y2="22" stroke="#bbdefb" stroke-width="1" />
      <circle cx="15" cy="13" r="1" fill="#bbdefb" />
      <circle cx="15" cy="19" r="1" fill="#bbdefb" />
      <circle cx="15" cy="25" r="1" fill="#bbdefb" />
    </symbol>
    
    <!-- Code document icon symbol -->
    <symbol id="codeIcon" viewBox="0 0 40 40">
      <path d="M12,8 L28,8 L28,32 L12,32 Z" fill="#1976d2" stroke="#bbdefb" stroke-width="1" />
      <path d="M16,14 L24,14 M16,18 L24,18 M16,22 L22,22 M16,26 L20,26" stroke="#bbdefb" stroke-width="1" />
      <path d="M14,11 L26,11" stroke="#bbdefb" stroke-width="1" />
    </symbol>
    
    <!-- Task/project icon symbol -->
    <symbol id="taskIcon" viewBox="0 0 40 40">
      <rect x="10" y="10" width="20" height="20" rx="2" fill="#1976d2" stroke="#bbdefb" stroke-width="1" />
      <path d="M15,20 L18,23 L25,16" stroke="#bbdefb" stroke-width="1.5" fill="none" />
    </symbol>
    
    <!-- Pulse animation for connections -->
    <linearGradient id="pulseGradient" x1="0%" y1="0%" x2="100%" y2="0%">
      <stop offset="0%" stop-color="#1e88e5" stop-opacity="0" />
      <stop offset="50%" stop-color="#03a9f4" stop-opacity="1" />
      <stop offset="100%" stop-color="#1e88e5" stop-opacity="0" />
      <animate attributeName="x1" from="-100%" to="100%" dur="3s" repeatCount="indefinite" />
      <animate attributeName="x2" from="0%" to="200%" dur="3s" repeatCount="indefinite" />
    </linearGradient>
  </defs>
  
  <!-- Main Background -->
  <rect width="600" height="400" fill="url(#hubGradient)" />
  
  <!-- Grid Background Pattern -->
  <path d="M0,40 L600,40 M0,80 L600,80 M0,120 L600,120 M0,160 L600,160 M0,200 L600,200 M0,240 L600,240 M0,280 L600,280 M0,320 L600,320 M0,360 L600,360" stroke="#3f51b5" stroke-width="0.5" opacity="0.3" />
  <path d="M40,0 L40,400 M80,0 L80,400 M120,0 L120,400 M160,0 L160,400 M200,0 L200,400 M240,0 L240,400 M280,0 L280,400 M320,0 L320,400 M360,0 L360,400 M400,0 L400,400 M440,0 L440,400 M480,0 L480,400 M520,0 L520,400 M560,0 L560,400" stroke="#3f51b5" stroke-width="0.5" opacity="0.3" />
  
  <!-- Network Diagram -->
  <!-- Central Hub -->
  <circle cx="300" cy="200" r="60" fill="url(#hubGlow)" filter="url(#nodeGlow)" />
  <circle cx="300" cy="200" r="45" fill="#0d47a1" stroke="#64b5f6" stroke-width="2" />
  <text x="300" y="205" font-family="Arial, sans-serif" font-size="14" fill="white" text-anchor="middle">PROJECT</text>
  <text x="300" y="220" font-family="Arial, sans-serif" font-size="14" fill="white" text-anchor="middle">HUB</text>
  
  <!-- Orbital Nodes -->
  <use xlink:href="#techNode" x="180" y="120" width="40" height="40" />
  <use xlink:href="#serverIcon" x="150" y="230" width="40" height="40" />
  <use xlink:href="#codeIcon" x="400" y="120" width="40" height="40" />
  <use xlink:href="#taskIcon" x="430" y="240" width="40" height="40" />
  
  <!-- Additional nodes -->
  <circle cx="210" cy="300" r="15" fill="#1976d2" stroke="#90caf9" stroke-width="1" />
  <circle cx="390" cy="300" r="15" fill="#1976d2" stroke="#90caf9" stroke-width="1" />
  <circle cx="300" cy="90" r="15" fill="#1976d2" stroke="#90caf9" stroke-width="1" />
  <circle cx="300" cy="310" r="15" fill="#1976d2" stroke="#90caf9" stroke-width="1" />
  
  <!-- Connections -->
  <line x1="300" y1="200" x2="210" y2="300" stroke="url(#pulseGradient)" stroke-width="2" />
  <line x1="300" y1="200" x2="390" y2="300" stroke="url(#pulseGradient)" stroke-width="2" />
  <line x1="300" y1="200" x2="300" y2="90" stroke="url(#pulseGradient)" stroke-width="2" />
  <line x1="300" y1="200" x2="300" y2="310" stroke="url(#pulseGradient)" stroke-width="2" />
  
  <line x1="300" y1="200" x2="200" y2="140" stroke="#4fc3f7" stroke-width="1.5" stroke-dasharray="5,2" />
  <line x1="300" y1="200" x2="170" y2="250" stroke="#4fc3f7" stroke-width="1.5" stroke-dasharray="5,2" />
  <line x1="300" y1="200" x2="420" y2="140" stroke="#4fc3f7" stroke-width="1.5" stroke-dasharray="5,2" />
  <line x1="300" y1="200" x2="450" y2="260" stroke="#4fc3f7" stroke-width="1.5" stroke-dasharray="5,2" />
  
  <!-- Data flow animations -->
  <circle cx="300" cy="200" r="3" fill="#ffffff">
    <animate attributeName="cx" from="300" to="200" dur="3s" repeatCount="indefinite" />
    <animate attributeName="cy" from="200" to="140" dur="3s" repeatCount="indefinite" />
    <animate attributeName="opacity" from="1" to="0" dur="3s" repeatCount="indefinite" />
  </circle>
  
  <circle cx="300" cy="200" r="3" fill="#ffffff">
    <animate attributeName="cx" from="300" to="170" dur="4s" repeatCount="indefinite" />
    <animate attributeName="cy" from="200" to="250" dur="4s" repeatCount="indefinite" />
    <animate attributeName="opacity" from="1" to="0" dur="4s" repeatCount="indefinite" />
  </circle>
  
  <circle cx="300" cy="200" r="3" fill="#ffffff">
    <animate attributeName="cx" from="300" to="420" dur="3.5s" repeatCount="indefinite" />
    <animate attributeName="cy" from="200" to="140" dur="3.5s" repeatCount="indefinite" />
    <animate attributeName="opacity" from="1" to="0" dur="3.5s" repeatCount="indefinite" />
  </circle>
  
  <circle cx="300" cy="200" r="3" fill="#ffffff">
    <animate attributeName="cx" from="300" to="450" dur="4.5s" repeatCount="indefinite" />
    <animate attributeName="cy" from="200" to="260" dur="4.5s" repeatCount="indefinite" />
    <animate attributeName="opacity" from="1" to="0" dur="4.5s" repeatCount="indefinite" />
  </circle>
  
  <!-- Title with glowing effect -->
  <text x="300" y="50" font-family="Arial, sans-serif" font-weight="bold" font-size="28" fill="#ffffff" text-anchor="middle" filter="url(#nodeGlow)">PROJECT HUB</text>
  
  <!-- Decorative tech elements -->
  <text x="480" y="80" font-family="Courier New, monospace" font-size="8" fill="#bbdefb" text-anchor="start" transform="rotate(15 480,80)">project.json</text>
  <text x="130" y="350" font-family="Courier New, monospace" font-size="8" fill="#bbdefb" text-anchor="start" transform="rotate(-10 130,350)">index.html</text>
  <text x="450" y="330" font-family="Courier New, monospace" font-size="8" fill="#bbdefb" text-anchor="start" transform="rotate(5 450,330)">main.js</text>
  
  <!-- Glowing particles -->
  <g>
    <circle cx="250" cy="150" r="1.5" fill="#ffffff">
      <animate attributeName="opacity" from="0.2" to="0.8" dur="2s" repeatCount="indefinite" />
    </circle>
    <circle cx="350" cy="150" r="1.5" fill="#ffffff">
      <animate attributeName="opacity" from="0.8" to="0.2" dur="2.3s" repeatCount="indefinite" />
    </circle>
    <circle cx="220" cy="250" r="1.5" fill="#ffffff">
      <animate attributeName="opacity" from="0.5" to="1" dur="1.8s" repeatCount="indefinite" />
    </circle>
    <circle cx="380" cy="250" r="1.5" fill="#ffffff">
      <animate attributeName="opacity" from="1" to="0.5" dur="1.5s" repeatCount="indefinite" />
    </circle>
  </g>
</svg>
