<?xml version="1.0" encoding="UTF-8"?>
<svg width="800" height="600" viewBox="0 0 800 600" xmlns="http://www.w3.org/2000/svg" xmlns:xlink="http://www.w3.org/1999/xlink">
  <!-- Definitions -->
  <defs>
    <!-- Background Gradient -->
    <linearGradient id="bgGradient" x1="0%" y1="0%" x2="100%" y2="100%">
      <stop offset="0%" stop-color="#1a1a2e" />
      <stop offset="100%" stop-color="#16213e" />
    </linearGradient>
    
    <!-- Glow Filter -->
    <filter id="glow" x="-20%" y="-20%" width="140%" height="140%">
      <feGaussianBlur stdDeviation="5" result="blur" />
      <feComposite in="SourceGraphic" in2="blur" operator="over" />
    </filter>
    
    <!-- Task Icon -->
    <symbol id="taskIcon" viewBox="0 0 24 24">
      <rect x="2" y="4" width="20" height="16" rx="2" fill="#4361ee" />
      <rect x="5" y="8" width="14" height="2" rx="1" fill="white" />
      <rect x="5" y="12" width="10" height="2" rx="1" fill="white" />
      <rect x="5" y="16" width="6" height="2" rx="1" fill="white" />
    </symbol>
    
    <!-- Calendar Icon -->
    <symbol id="calendarIcon" viewBox="0 0 24 24">
      <rect x="3" y="4" width="18" height="18" rx="2" fill="#3a0ca3" />
      <rect x="3" y="4" width="18" height="4" fill="#4cc9f0" />
      <rect x="6" y="10" width="3" height="3" rx="1" fill="white" />
      <rect x="11" y="10" width="3" height="3" rx="1" fill="white" />
      <rect x="16" y="10" width="3" height="3" rx="1" fill="white" />
      <rect x="6" y="15" width="3" height="3" rx="1" fill="white" />
      <rect x="11" y="15" width="3" height="3" rx="1" fill="white" />
    </symbol>
    
    <!-- Clock Icon -->
    <symbol id="clockIcon" viewBox="0 0 24 24">
      <circle cx="12" cy="12" r="10" fill="#f72585" />
      <circle cx="12" cy="12" r="1" fill="white" />
      <line x1="12" y1="12" x2="12" y2="6" stroke="white" stroke-width="1" />
      <line x1="12" y1="12" x2="16" y2="14" stroke="white" stroke-width="1" />
    </symbol>
    
    <!-- Grid Pattern -->
    <pattern id="grid" width="40" height="40" patternUnits="userSpaceOnUse">
      <path d="M 40 0 L 0 0 0 40" fill="none" stroke="#3a506b" stroke-width="0.5" opacity="0.3" />
    </pattern>
    
    <!-- Progress Bar Animation -->
    <linearGradient id="progressGradient" x1="0%" y1="0%" x2="100%" y2="0%">
      <stop offset="0%" stop-color="#4cc9f0">
        <animate attributeName="stop-color" values="#4cc9f0; #f72585; #4cc9f0" dur="3s" repeatCount="indefinite" />
      </stop>
      <stop offset="100%" stop-color="#f72585">
        <animate attributeName="stop-color" values="#f72585; #4cc9f0; #f72585" dur="3s" repeatCount="indefinite" />
      </stop>
    </linearGradient>
  </defs>
  
  <!-- Background -->
  <rect width="800" height="600" fill="url(#bgGradient)" />
  <rect width="800" height="600" fill="url(#grid)" />
  
  <!-- Title -->
  <g transform="translate(400, 60)" text-anchor="middle">
    <text font-family="Arial, sans-serif" font-size="36" font-weight="bold" fill="white" filter="url(#glow)">
      WORK TRACKER
    </text>
    <text font-family="Arial, sans-serif" font-size="16" fill="#4cc9f0" y="30">
      Productivity Dashboard
    </text>
  </g>
  
  <!-- Weekly Progress Section -->
  <g transform="translate(100, 150)">
    <rect width="250" height="200" rx="10" fill="rgba(26, 26, 46, 0.7)" stroke="#4361ee" stroke-width="1" />
    <text x="20" y="30" font-family="Arial, sans-serif" font-size="18" fill="white">Weekly Progress</text>
    
    <!-- Progress Bars -->
    <g transform="translate(20, 50)">
      <text x="0" y="10" font-family="Arial, sans-serif" font-size="12" fill="#f1faee">Monday</text>
      <rect x="70" y="2" width="150" height="10" rx="5" fill="#3a506b" />
      <rect x="70" y="2" width="105" height="10" rx="5" fill="url(#progressGradient)">
        <animate attributeName="width" values="0; 105" dur="1s" begin="0s" fill="freeze" />
      </rect>
      
      <text x="0" y="35" font-family="Arial, sans-serif" font-size="12" fill="#f1faee">Tuesday</text>
      <rect x="70" y="27" width="150" height="10" rx="5" fill="#3a506b" />
      <rect x="70" y="27" width="120" height="10" rx="5" fill="url(#progressGradient)">
        <animate attributeName="width" values="0; 120" dur="1s" begin="0.2s" fill="freeze" />
      </rect>
      
      <text x="0" y="60" font-family="Arial, sans-serif" font-size="12" fill="#f1faee">Wednesday</text>
      <rect x="70" y="52" width="150" height="10" rx="5" fill="#3a506b" />
      <rect x="70" y="52" width="90" height="10" rx="5" fill="url(#progressGradient)">
        <animate attributeName="width" values="0; 90" dur="1s" begin="0.4s" fill="freeze" />
      </rect>
      
      <text x="0" y="85" font-family="Arial, sans-serif" font-size="12" fill="#f1faee">Thursday</text>
      <rect x="70" y="77" width="150" height="10" rx="5" fill="#3a506b" />
      <rect x="70" y="77" width="135" height="10" rx="5" fill="url(#progressGradient)">
        <animate attributeName="width" values="0; 135" dur="1s" begin="0.6s" fill="freeze" />
      </rect>
      
      <text x="0" y="110" font-family="Arial, sans-serif" font-size="12" fill="#f1faee">Friday</text>
      <rect x="70" y="102" width="150" height="10" rx="5" fill="#3a506b" />
      <rect x="70" y="102" width="75" height="10" rx="5" fill="url(#progressGradient)">
        <animate attributeName="width" values="0; 75" dur="1s" begin="0.8s" fill="freeze" />
      </rect>
    </g>
  </g>
  
  <!-- Daily Activity -->
  <g transform="translate(400, 150)">
    <rect width="300" height="200" rx="10" fill="rgba(26, 26, 46, 0.7)" stroke="#4361ee" stroke-width="1" />
    <text x="20" y="30" font-family="Arial, sans-serif" font-size="18" fill="white">Daily Activity</text>
    
    <!-- Activity Chart (Circular) -->
    <g transform="translate(150, 110)">
      <circle cx="0" cy="0" r="60" fill="none" stroke="#3a506b" stroke-width="10" />
      
      <!-- Activity Segments -->
      <circle cx="0" cy="0" r="60" fill="none" stroke="#4cc9f0" stroke-width="10" stroke-dasharray="377 377" stroke-dashoffset="377">
        <animate attributeName="stroke-dashoffset" from="377" to="94" dur="1.5s" fill="freeze" />
      </circle>
      
      <!-- Center Text -->
      <text x="0" y="0" font-family="Arial, sans-serif" font-size="24" text-anchor="middle" dominant-baseline="middle" fill="white">75%</text>
      <text x="0" y="20" font-family="Arial, sans-serif" font-size="12" text-anchor="middle" dominant-baseline="middle" fill="#f1faee">Complete</text>
    </g>
    
    <!-- Legend -->
    <g transform="translate(20, 170)">
      <rect width="12" height="12" fill="#4cc9f0" />
      <text x="20" y="10" font-family="Arial, sans-serif" font-size="12" fill="#f1faee">Completed Tasks</text>
      
      <rect x="150" width="12" height="12" fill="#3a506b" />
      <text x="170" y="10" font-family="Arial, sans-serif" font-size="12" fill="#f1faee">Remaining</text>
    </g>
  </g>
  
  <!-- Task Statistics -->
  <g transform="translate(100, 380)">
    <rect width="600" height="150" rx="10" fill="rgba(26, 26, 46, 0.7)" stroke="#4361ee" stroke-width="1" />
    <text x="20" y="30" font-family="Arial, sans-serif" font-size="18" fill="white">Task Statistics</text>
    
    <!-- Task Icons with Stats -->
    <g transform="translate(60, 70)">
      <use xlink:href="#taskIcon" width="40" height="40" />
      <text x="20" y="55" font-family="Arial, sans-serif" font-size="24" text-anchor="middle" fill="white">12</text>
      <text x="20" y="75" font-family="Arial, sans-serif" font-size="12" text-anchor="middle" fill="#f1faee">Tasks</text>
    </g>
    
    <g transform="translate(160, 70)">
      <use xlink:href="#calendarIcon" width="40" height="40" />
      <text x="20" y="55" font-family="Arial, sans-serif" font-size="24" text-anchor="middle" fill="white">5</text>
      <text x="20" y="75" font-family="Arial, sans-serif" font-size="12" text-anchor="middle" fill="#f1faee">Days</text>
    </g>
    
    <g transform="translate(260, 70)">
      <use xlink:href="#clockIcon" width="40" height="40" />
      <text x="20" y="55" font-family="Arial, sans-serif" font-size="24" text-anchor="middle" fill="white">32</text>
      <text x="20" y="75" font-family="Arial, sans-serif" font-size="12" text-anchor="middle" fill="#f1faee">Hours</text>
    </g>
    
    <!-- Animated Data Point -->
    <g transform="translate(400, 70)">
      <circle cx="0" cy="0" r="25" fill="#f72585">
        <animate attributeName="r" values="23;25;23" dur="2s" repeatCount="indefinite" />
      </circle>
      <text x="0" y="5" font-family="Arial, sans-serif" font-size="18" text-anchor="middle" dominant-baseline="middle" fill="white">87%</text>
      <text x="0" y="40" font-family="Arial, sans-serif" font-size="12" text-anchor="middle" fill="#f1faee">Efficiency</text>
    </g>
    
    <g transform="translate(500, 70)">
      <circle cx="0" cy="0" r="25" fill="#4361ee">
        <animate attributeName="r" values="23;25;23" dur="2s" repeatCount="indefinite" begin="0.5s" />
      </circle>
      <text x="0" y="5" font-family="Arial, sans-serif" font-size="18" text-anchor="middle" dominant-baseline="middle" fill="white">9</text>
      <text x="0" y="40" font-family="Arial, sans-serif" font-size="12" text-anchor="middle" fill="#f1faee">Completed</text>
    </g>
  </g>

  <!-- Decorative Particles -->
  <g>
    <circle cx="700" cy="50" r="3" fill="#f72585">
      <animate attributeName="cy" values="50;60;50" dur="3s" repeatCount="indefinite" />
      <animate attributeName="opacity" values="0.5;1;0.5" dur="3s" repeatCount="indefinite" />
    </circle>
    <circle cx="720" cy="70" r="2" fill="#4cc9f0">
      <animate attributeName="cy" values="70;80;70" dur="2.5s" repeatCount="indefinite" />
      <animate attributeName="opacity" values="0.7;1;0.7" dur="2.5s" repeatCount="indefinite" />
    </circle>
    <circle cx="690" cy="90" r="4" fill="#4361ee">
      <animate attributeName="cy" values="90;100;90" dur="4s" repeatCount="indefinite" />
      <animate attributeName="opacity" values="0.6;1;0.6" dur="4s" repeatCount="indefinite" />
    </circle>
  </g>
</svg> 